#!OML:ASF F:\VICON\USERDATA\INSTALL\rory3\rory3.ASF
:FULLY-SPECIFIED
:DEGREES
744
root -10.2487 16.1938 -13.7069 -142.594 -45.7516 -185.833
lowerback -10.7652 -3.69493 -0.0544067
upperback -20.5377 -9.82229 -3.58286
thorax -18.4957 -6.97369 -3.02705
lowerneck -5.33043 5.71187 -2.54896
upperneck -0.600496 7.52818 9.85744
head 0.221467 3.80771 3.74933
rclavicle 8.18993e-014 9.70069e-014
rhumerus -26.8932 -41.1699 13.9776
rradius 14.7899
rwrist 37.8373
rhand 24.566 -3.05008
rfingers 7.12502
rthumb 48.7624 -24.8992
lclavicle 8.18993e-014 9.70069e-014
lhumerus 74.9904 0.22323 24.6425
lradius 29.2447
lwrist -14.9046
lhand 8.65775 25.9759
lfingers 7.12502
lthumb 33.8522 52.7923
rfemur 294.603 1.54507 -336.043
rtibia 42.6742
rfoot 115.214 -224.452
rtoes 47.8758
lfemur -18.3388 -1.02337 -18.6115
ltibia 35.2679
lfoot 142.875 -141.381
ltoes 49.3832
745
root -10.232 16.1855 -13.6978 -142.386 -45.3692 -186.144
lowerback -10.5473 -3.71596 -0.566109
upperback -20.5696 -9.86989 -3.59458
thorax -18.5963 -6.91234 -2.73171
lowerneck -1.76951 5.61872 -0.378987
upperneck -4.13144 7.57189 6.64836
head -1.28777 3.65508 2.0991
rclavicle -2.90226e-014 -1.11319e-014
rhumerus -26.7846 -42.2693 14.55
rradius 14.6754
rwrist 39.164
rhand 25.2767 -3.02884
rfingers 7.12502
rthumb 49.4151 -24.5534
lclavicle -2.90226e-014 -1.11319e-014
lhumerus 74.5006 0.0954718 21.3427
lradius 30.0484
lwrist -11.3367
lhand 7.84054 27.4169
lfingers 7.12502
lthumb 33.0754 54.4012
rfemur 294.494 1.62305 -336.33
rtibia 42.6343
rfoot 115.464 -224.665
rtoes 47.7908
lfemur -18.4802 -0.297217 -19.0341
ltibia 35.351
lfoot 143.991 -139.219
ltoes 48.3164
746
root -10.2173 16.1833 -13.6951 -142.328 -45.1414 -186.22
lowerback -10.8272 -4.08195 -1.24475
upperback -19.2955 -9.58117 -2.89585
thorax -16.2205 -6.36358 -1.8436
lowerneck -8.27611 5.33541 -4.58222
upperneck -2.08724 7.25602 9.18239
head 0.228663 3.69714 3.98338
rclavicle -1.74931e-014 1.59028e-015
rhumerus -23.94 -34.4849 10.6575
rradius 15.5833
rwrist 27.5903
rhand 25.7113 -5.50877
rfingers 7.12502
rthumb 49.8134 -26.8289
lclavicle -1.74931e-014 1.59028e-015
lhumerus 76.4539 3.40237 26.5197
lradius 28.6027
lwrist -15.4567
lhand 8.35227 26.1582
lfingers 7.12502
lthumb 33.5619 53.0381
rfemur 294.423 1.66172 -336.428
rtibia 42.5589
rfoot 115.731 -225.028
rtoes 47.5297
lfemur -18.6624 0.320341 -19.2196
ltibia 35.4621
lfoot 147.588 -136.621
ltoes 48.0228
747
root -10.2098 16.1876 -13.693 -142.412 -45.1125 -186.103
lowerback -10.2946 -4.01207 -0.914737
upperback -20.2201 -10.0818 -3.38088
thorax -18.1312 -6.86219 -2.30973
lowerneck -6.11194 5.72382 -3.67965
upperneck -1.30237 7.65587 10.1006
head 0.0685684 3.87599 4.06414
rclavicle -5.36719e-014 -1.59028e-014
rhumerus -23.607 -33.4111 9.95015
rradius 15.5485
rwrist 29.2028
rhand 26.4635 -5.16761
rfingers 7.12502
rthumb 50.5013 -26.1231
lclavicle -5.36719e-014 -1.59028e-014
lhumerus 75.7393 1.68967 27.495
lradius 28.1362
lwrist -17.9026
lhand 9.3341 25.1916
lfingers 7.12502
lthumb 34.4945 51.8642
rfemur 294.419 1.53274 -336.233
rtibia 42.4803
rfoot 116.182 -225.346
rtoes 47.0779
lfemur -18.7349 0.343727 -19.1716
ltibia 35.5486
lfoot 149.099 -135.708
ltoes 47.7211
748
root -10.2079 16.1916 -13.6866 -142.643 -45.2284 -185.766
lowerback -10.2253 -4.11181 -0.618443
upperback -20.4071 -10.3202 -3.29924
thorax -18.5117 -7.04381 -2.31449
lowerneck -4.3937 6.01015 -2.95317
upperneck -2.22318 8.06365 9.55767
head -0.504895 4.01053 3.64827
rclavicle 4.37326e-015 3.49861e-014
rhumerus -23.2164 -36.5506 10.4831
rradius 15.2381
rwrist 33.0273
rhand 27.1365 -4.79752
rfingers 7.12502
rthumb 51.1151 -25.4144
lclavicle 4.37326e-015 3.49861e-014
lhumerus 75.1697 1.60152 26.3577
lradius 28.1777
lwrist -17.3444
lhand 9.51268 25.439
lfingers 7.12502
lthumb 34.664 52.0728
rfemur 294.443 1.38165 -335.826
rtibia 42.3897
rfoot 116.711 -225.569
rtoes 46.8454
lfemur -18.792 0.155205 -18.9127
ltibia 35.6246
lfoot 148.801 -135.744
ltoes 47.6333
749
root -10.208 16.1933 -13.676 -142.817 -45.3249 -185.542
lowerback -10.3819 -4.26416 -0.363966
upperback -20.1508 -10.401 -3.20484
thorax -18.0616 -7.07996 -2.39882
lowerneck -2.62535 6.11983 -1.58918
upperneck -4.45081 8.27228 7.68013
head -1.38267 4.00914 2.66494
rclavicle -4.33351e-014 -7.31528e-014
rhumerus -23.0593 -40.6829 11.1983
rradius 14.8833
rwrist 36.7454
rhand 27.4809 -5.21554
rfingers 7.12502
rthumb 51.4285 -25.6546
lclavicle -4.33351e-014 -7.31528e-014
lhumerus 75.2157 2.27847 25.7156
lradius 28.1614
lwrist -16.8577
lhand 9.31133 25.5926
lfingers 7.12502
lthumb 34.4729 52.2701
rfemur 294.472 1.17171 -335.5
rtibia 42.3392
rfoot 117.19 -225.657
rtoes 46.6558
lfemur -18.7726 -0.161558 -18.7568
ltibia 35.6538
lfoot 147.092 -136.607
ltoes 47.4484
750
root -10.1988 16.1912 -13.6667 -142.74 -44.9995 -185.693
lowerback -9.93043 -4.12787 -0.393862
upperback -20.3865 -10.4087 -3.48347
thorax -18.7831 -7.14957 -2.588
lowerneck -2.42279 6.07662 -1.94791
upperneck -3.91249 8.22114 8.30885
head -1.2919 3.99588 2.93973
rclavicle -2.8625e-014 -3.65764e-014
rhumerus -22.2552 -37.6352 10.0935
rradius 15.1473
rwrist 34.2708
rhand 27.659 -6.00498
rfingers 7.12502
rthumb 51.5905 -26.3508
lclavicle -2.8625e-014 -3.65764e-014
lhumerus 74.828 1.86113 25.2082
lradius 28.63
lwrist -16.5377
lhand 9.58658 25.6545
lfingers 7.12502
lthumb 34.7341 52.2723
rfemur 294.4 1.13404 -335.637
rtibia 42.3521
rfoot 117.529 -225.716
rtoes 46.4999
lfemur -18.6918 -0.30598 -19.0767
ltibia 35.623
lfoot 145.521 -137.536
ltoes 47.4748
751
root -10.1861 16.1872 -13.6598 -142.332 -44.5826 -186.041
lowerback -10.0681 -4.15349 -0.794385
upperback -19.7632 -10.1021 -3.41501
thorax -17.6385 -6.8312 -2.4424
lowerneck -4.51345 5.90078 -3.12282
upperneck -4.18115 8.00203 8.35886
head -1.05941 3.93239 3.24216
rclavicle -5.00937e-014 1.11319e-014
rhumerus -21.1099 -31.4791 8.2489
rradius 15.9855
rwrist 26.1404
rhand 27.7875 -7.08233
rfingers 7.12502
rthumb 51.7072 -27.3603
lclavicle -5.00937e-014 1.11319e-014
lhumerus 76.8618 3.69251 30.4879
lradius 27.2026
lwrist -20.9892
lhand 10.1525 24.251
lfingers 7.12502
lthumb 35.2709 50.7433
rfemur 294.057 1.10684 -335.939
rtibia 42.3871
rfoot 118.145 -226.051
rtoes 46.1909
lfemur -18.8106 -0.354639 -19.5416
ltibia 35.5775
lfoot 145.385 -137.783
ltoes 47.5884
752
root -10.1779 16.1828 -13.6553 -142.115 -44.3047 -186.189
lowerback -10.1442 -4.20186 -0.972364
upperback -19.7961 -10.2299 -3.52138
thorax -17.6525 -6.90036 -2.4622
lowerneck -5.8282 6.0251 -3.93846
upperneck -2.61261 8.1516 9.59401
head -0.431855 4.08311 3.89571
rclavicle 9.97899e-014 5.56597e-014
rhumerus -21.6624 -39.7117 10.4092
rradius 15.4062
rwrist 34.5678
rhand 28.6899 -5.70223
rfingers 7.12502
rthumb 52.5254 -25.4906
lclavicle 9.97899e-014 5.56597e-014
lhumerus 75.9079 3.76422 26.0046
lradius 28.4215
lwrist -16.6264
lhand 9.8807 25.5533
lfingers 7.12502
lthumb 35.0132 52.1062
rfemur 293.806 1.06403 -336.035
rtibia 42.4481
rfoot 118.658 -226.322
rtoes 45.8508
lfemur -18.8957 -0.129001 -19.8369
ltibia 35.5131
lfoot 146.227 -137.415
ltoes 47.7794
753
root -10.17 16.1779 -13.6525 -142.059 -44.0063 -186.233
lowerback -9.96594 -4.06609 -1.00744
upperback -20.0419 -10.2575 -3.83597
thorax -18.2207 -6.99958 -2.72833
lowerneck -3.4025 6.23923 -2.45998
upperneck -4.16792 8.44783 8.36087
head -1.2452 4.1262 3.07762
rclavicle 1.10922e-013 6.36111e-015
rhumerus -21.6694 -40.6651 10.6253
rradius 15.398
rwrist 36.3039
rhand 28.8506 -4.98153
rfingers 7.12502
rthumb 52.6706 -24.6802
lclavicle 1.10922e-013 6.36111e-015
lhumerus 77.1995 3.48002 33.6418
lradius 26.7862
lwrist -23.8956
lhand 10.4062 23.6388
lfingers 7.12502
lthumb 35.5115 50.0739
rfemur 293.663 1.08303 -336.074
rtibia 42.5208
rfoot 119.09 -226.463
rtoes 45.6191
lfemur -18.8879 0.271613 -20.0823
ltibia 35.4236
lfoot 148.043 -136.366
ltoes 47.5676
754
root -10.1774 16.1861 -13.6314 -141.918 -43.9212 -186.424
lowerback -9.83975 -4.02605 -0.78607
upperback -20.1707 -10.3617 -4.11824
thorax -18.6396 -7.16089 -3.11363
lowerneck -3.17239 6.35903 -1.72755
upperneck -3.38543 8.55408 8.18171
head -0.994924 4.19185 2.88663
rclavicle -7.55382e-015 3.33958e-014
rhumerus -21.4667 -41.5985 10.6069
rradius 15.501
rwrist 37.8042
rhand 29.0314 -3.80953
rfingers 7.12502
rthumb 52.834 -23.4064
lclavicle -7.55382e-015 3.33958e-014
lhumerus 75.2687 3.01729 24.9207
lradius 29.2672
lwrist -15.6609
lhand 9.10666 26.2759
lfingers 7.12502
lthumb 34.2786 52.9974
rfemur 293.549 0.78112 -336.129
rtibia 42.6157
rfoot 119.735 -226.684
rtoes 45.4087
lfemur -18.8236 0.430725 -20.3506
ltibia 35.335
lfoot 150.993 -135.145
ltoes 47.2122
